<?xml version="1.0" encoding="utf-8"?>
<svg version="1.0" width="250pt" height="0pt" viewBox="0 0 215 56" preserveAspectRatio="xMinYMin" xmlns="http://www.w3.org/2000/svg">
  <g transform="matrix(0.00852, 0, 0, -0.007843, -43.304737, 84.609474)" fill="#000000" stroke="none">
    <path d="M8545 10379 c-1048 -92 -1979 -724 -2457 -1669 -271 -535 -376 -1142 -302 -1745 68 -553 290 -1077 645 -1525 106 -134 622 -650 759 -760 162 -129 357 -253 555 -350 323 -160 607 -246 970 -296 181 -25 617 -25 795 0 569 79 1061 288 1501 637 133 106 362 334 469 469 541 681 762 1546 619 2420 -82 500 -304 996 -625 1400 -86 108 -579 606 -704 712 -617 520 -1424 777 -2225 707z m545 -70 c462 -43 930 -204 1325 -458 63 -40 207 -142 228 -161 5 -4 -79 36 -185 89 -341 170 -634 259 -1013 307 -157 20 -512 22 -665 5 -714 -83 -1335 -378 -1831 -871 -497 -494 -804 -1126 -883 -1820 -18 -156 -21 -487 -6 -641 40 -395 175 -833 359 -1162 27 -48 45 -85 40 -81 -17 10 -147 199 -210 304 -401 674 -521 1490 -330 2247 308 1217 1344 2112 2596 2242 118 12 443 12 575 0z m395 -653 c471 -76 967 -296 1197 -532 331 -339 573 -803 667 -1274 38 -195 46 -281 46 -510 -1 -292 -30 -502 -106 -747 -131 -428 -354 -790 -680 -1108 -876 -853 -2219 -975 -3235 -295 -228 154 -388 301 -487 450 -80 121 -209 379 -262 524 -48 130 -108 370 -131 521 -23 148 -26 540 -6 680 63 426 198 785 423 1125 433 651 1119 1077 1897 1175 143 19 539 13 677 -9z m1690 -1002 c572 -735 703 -1735 341 -2607 -210 -507 -610 -965 -1088 -1249 -678 -401 -1502 -476 -2244 -203 -251 92 -561 272 -764 443 -142 119 -161 145 -60 79 908 -587 2061 -575 2945 31 155 106 242 178 381 317 712 711 962 1750 648 2701 -73 222 -179 442 -302 628 -26 39 -49 76 -50 81 -7 19 113 -118 193 -221z" style="fill: rgb(46, 24, 106);"/>
    <path d="M23945 9265 c-176 -30 -335 -56 -352 -60 l-33 -6 0 -69 c0 -64 2 -70 23 -75 22 -5 386 -55 400 -55 4 0 7 -826 7 -1835 l0 -1835 -215 0 -215 0 0 -95 0 -95 600 0 600 0 0 95 0 95 -215 0 -215 0 1 388 0 387 244 250 c134 137 246 248 248 245 18 -21 900 -1247 904 -1257 4 -10 -32 -13 -176 -13 l-181 0 0 -95 0 -95 540 0 540 0 0 95 0 95 -162 0 -163 1 -532 742 c-293 408 -534 745 -535 749 -3 6 328 351 710 741 l174 177 194 0 194 0 0 95 0 95 -550 0 -550 0 0 -95 0 -95 195 0 c107 0 195 -3 195 -7 0 -3 -28 -36 -63 -72 -34 -36 -318 -339 -631 -673 -312 -335 -575 -608 -582 -608 -12 0 -14 224 -14 1470 l0 1470 -32 -1 c-18 -1 -177 -25 -353 -54z" style="fill: rgb(46, 24, 106);"/>
    <path d="M13670 8845 l0 -95 215 0 215 0 0 -1710 0 -1710 -215 0 -215 0 0 -95 0 -95 1023 0 c593 0 1053 5 1096 10 241 32 425 121 578 283 176 188 263 434 263 749 0 196 -24 307 -101 465 -117 239 -362 414 -661 473 -32 6 -58 14 -58 18 0 4 40 20 89 35 215 68 401 232 492 433 71 156 103 382 80 559 -18 134 -37 199 -91 310 -103 214 -291 360 -559 433 l-96 27 -1027 3 -1028 3 0 -96z m1980 -134 c236 -71 388 -233 434 -463 22 -106 22 -429 1 -536 -37 -183 -149 -334 -308 -411 -155 -77 -135 -75 -764 -79 l-563 -3 0 761 0 761 563 -3 c549 -4 564 -5 637 -27z m90 -1715 c36 -10 103 -36 149 -58 113 -54 229 -167 284 -278 70 -140 80 -203 81 -475 1 -274 -7 -318 -76 -465 -57 -120 -168 -230 -288 -288 -160 -77 -141 -75 -827 -79 l-613 -4 0 836 0 836 613 -3 c551 -4 619 -6 677 -22z" style="fill: rgb(46, 24, 106);"/>
    <path d="M18227 7990 c-384 -37 -690 -195 -789 -406 -54 -115 -43 -243 25 -321 44 -50 99 -73 176 -73 87 0 138 17 187 65 31 30 47 55 59 99 36 122 -7 231 -117 301 -15 9 -25 22 -22 27 11 17 124 64 196 82 165 41 463 47 593 11 228 -63 373 -209 437 -442 19 -70 22 -110 26 -385 l4 -308 -324 0 c-329 0 -496 -9 -648 -35 -410 -70 -637 -236 -720 -525 -31 -107 -38 -307 -16 -420 22 -115 90 -251 164 -332 134 -144 320 -225 570 -247 235 -21 458 20 632 116 97 53 233 196 288 301 24 45 47 82 51 82 5 0 11 -53 13 -117 9 -191 53 -274 176 -335 62 -31 75 -33 184 -37 129 -3 240 14 337 53 l56 22 3 77 3 77 -215 0 -215 0 -4 978 c-4 1067 -1 1019 -63 1190 -52 145 -174 292 -308 371 -81 48 -218 98 -320 116 -111 19 -305 26 -419 15z m773 -1827 c0 -344 -7 -398 -62 -511 -48 -99 -158 -205 -268 -260 -139 -68 -218 -85 -405 -86 -183 0 -255 13 -370 69 -125 60 -216 173 -244 303 -16 75 -13 284 4 367 47 220 217 351 522 399 142 23 138 23 496 24 l327 2 0 -307z" style="fill: rgb(46, 24, 106);"/>
    <path d="M21682 7989 c-307 -36 -560 -199 -672 -434 -17 -36 -35 -65 -41 -65 -5 0 -9 97 -9 245 0 227 -1 245 -17 245 -17 0 -671 -105 -721 -116 -22 -4 -23 -9 -20 -77 l3 -72 213 -30 212 -29 0 -1163 0 -1163 -215 0 -215 0 0 -95 0 -95 600 0 600 0 0 95 0 95 -215 0 -215 0 0 948 c0 1042 -2 999 62 1132 40 83 157 201 246 248 149 79 288 107 485 99 153 -6 250 -32 356 -94 118 -70 219 -209 265 -363 44 -147 46 -192 46 -1102 l0 -868 -215 0 -215 0 0 -95 0 -95 600 0 600 0 0 95 0 95 -215 0 -214 0 -4 918 c-3 1000 -3 992 -63 1184 -44 141 -98 232 -194 329 -72 73 -100 94 -180 132 -178 87 -421 122 -648 96z" style="fill: rgb(46, 24, 106);"/>
    <path d="M27870 7994 c-203 -24 -317 -53 -447 -114 -345 -162 -578 -486 -662 -923 -82 -425 -37 -881 119 -1215 215 -459 670 -706 1217 -661 614 50 1017 455 1117 1124 34 223 30 489 -9 717 -100 577 -455 963 -968 1052 -90 16 -304 28 -367 20z m367 -239 c349 -89 563 -369 613 -803 8 -68 10 -225 7 -484 -4 -346 -7 -393 -26 -482 -46 -210 -114 -339 -247 -472 -78 -79 -104 -98 -185 -137 -155 -75 -330 -104 -513 -87 -218 21 -364 82 -498 208 -153 145 -246 346 -278 602 -17 139 -13 783 6 908 66 448 326 721 735 771 109 14 279 3 386 -24z" style="fill: rgb(46, 24, 106);"/>
  </g>
</svg>