<?xml version="1.0" standalone="no"?>
<!DOCTYPE svg PUBLIC "-//W3C//DTD SVG 20010904//EN"
 "http://www.w3.org/TR/2001/REC-SVG-20010904/DTD/svg10.dtd">
<svg version="1.0" xmlns="http://www.w3.org/2000/svg"
 width="600.000000pt" height="151.000000pt" viewBox="0 0 600.000000 151.000000"
 preserveAspectRatio="xMidYMid meet">

<g transform="translate(0.000000,151.000000) scale(0.100000,-0.100000)"
fill="#000000" stroke="none">
<path d="M734 1460 c-231 -42 -442 -195 -539 -393 -97 -196 -96 -387 2 -587
31 -62 58 -96 158 -195 158 -157 284 -228 458 -255 129 -21 274 -9 394 32 135
46 202 87 293 179 85 86 128 152 167 259 24 67 27 89 28 200 0 138 -14 199
-66 304 -42 82 -81 130 -187 229 -111 104 -195 155 -322 198 -81 27 -112 32
-215 35 -66 2 -143 -1 -171 -6z m359 -35 c87 -25 163 -59 202 -89 12 -10 -5
-6 -43 9 -102 41 -188 57 -307 58 -333 1 -617 -194 -722 -496 -47 -134 -33
-339 33 -468 36 -73 29 -72 -19 2 -63 98 -89 183 -95 310 -5 124 10 197 63
304 100 205 302 349 553 395 82 15 238 4 335 -25z m21 -135 c117 -30 207 -81
267 -153 96 -115 134 -221 133 -367 -1 -157 -55 -280 -177 -400 -238 -234
-649 -246 -895 -25 -56 51 -114 157 -133 244 -18 85 -6 243 23 316 81 198 255
342 473 390 91 20 219 18 309 -5z m391 -275 c100 -162 118 -329 54 -504 -63
-171 -240 -323 -439 -377 -103 -28 -273 -24 -375 9 -75 25 -242 113 -232 123
2 2 33 -9 68 -25 105 -49 182 -66 299 -65 215 1 392 82 517 236 96 119 133
224 133 373 0 105 -34 218 -90 301 -31 46 -32 48 -6 24 15 -14 47 -56 71 -95z"/>
<path d="M4660 1218 c-102 -14 -120 -19 -120 -32 0 -15 30 -26 73 -26 l27 0 0
-420 0 -420 -50 0 c-43 0 -50 -3 -50 -20 0 -19 7 -20 145 -20 138 0 145 1 145
20 0 18 -7 20 -55 20 l-55 0 0 88 0 87 64 57 64 57 110 -142 111 -142 -44 -3
c-37 -3 -45 -7 -45 -23 0 -18 8 -19 135 -19 128 0 135 1 135 20 0 17 -7 20
-42 20 l-43 1 -127 164 c-71 90 -128 168 -128 173 0 5 49 55 109 111 105 98
111 101 155 101 39 0 46 3 46 20 0 19 -7 20 -135 20 -128 0 -135 -1 -135 -20
0 -17 7 -20 51 -20 l50 0 -158 -154 c-87 -85 -160 -152 -163 -149 -3 2 -7 152
-10 331 l-5 327 -55 -7z"/>
<path d="M2080 1120 c0 -18 7 -20 55 -20 l55 0 0 -390 0 -390 -55 0 c-48 0
-55 -2 -55 -20 0 -20 7 -20 280 -20 303 0 315 2 379 56 47 40 71 96 71 172 0
111 -61 189 -165 212 l-30 6 35 18 c86 44 124 103 123 192 -1 92 -35 143 -123
183 -42 19 -65 21 -307 21 -256 0 -263 -1 -263 -20z m539 -53 c51 -34 63 -62
63 -150 0 -55 -5 -75 -24 -102 -36 -54 -77 -65 -243 -65 l-145 0 0 176 0 176
153 -3 c148 -4 155 -5 196 -32z m20 -388 c62 -35 76 -63 79 -159 3 -76 1 -89
-20 -119 -45 -67 -73 -76 -260 -79 l-168 -4 0 191 0 191 166 0 c150 0 170 -2
203 -21z"/>
<path d="M4039 916 c-59 -16 -106 -45 -130 -82 l-19 -29 0 58 c0 65 7 62 -110
44 -55 -9 -76 -16 -78 -28 -2 -13 9 -18 53 -24 l55 -6 0 -265 0 -264 -55 0
c-48 0 -55 -2 -55 -20 0 -19 7 -20 150 -20 143 0 150 1 150 20 0 18 -7 20 -56
20 l-55 0 3 228 c3 258 5 263 86 303 58 29 162 24 208 -9 59 -41 64 -66 64
-306 l0 -216 -50 0 c-43 0 -50 -3 -50 -20 0 -19 7 -20 145 -20 138 0 145 1
145 20 0 17 -7 20 -49 20 l-48 0 -5 231 -6 230 -28 47 c-48 78 -162 116 -265
88z"/>
<path d="M3108 896 c-66 -27 -97 -59 -98 -98 0 -58 88 -75 113 -21 8 19 7 29
-11 52 -19 27 -20 30 -4 36 9 4 53 9 97 12 140 8 195 -42 195 -177 l0 -77
-110 -7 c-136 -8 -199 -21 -242 -49 -97 -65 -89 -219 13 -277 38 -21 57 -25
129 -25 94 1 125 12 174 64 36 38 46 39 46 6 0 -52 66 -84 140 -67 21 5 36 15
38 25 3 14 -5 17 -46 17 l-49 0 -5 238 c-6 254 -9 272 -60 319 -63 59 -214 73
-320 29z m292 -398 c0 -101 -17 -135 -84 -166 -79 -37 -190 -23 -229 30 -21
28 -25 96 -8 140 19 51 91 75 229 77 l92 1 0 -82z"/>
<path d="M5501 903 c-118 -43 -189 -176 -179 -338 9 -135 67 -230 171 -276 74
-34 200 -33 275 0 65 29 125 95 149 164 27 77 24 226 -5 291 -34 75 -68 113
-125 143 -44 23 -67 27 -147 30 -69 2 -107 -2 -139 -14z m237 -47 c80 -41 112
-119 112 -270 0 -200 -75 -286 -240 -274 -86 6 -139 38 -171 101 -27 52 -38
220 -20 302 15 66 66 128 124 149 50 19 152 14 195 -8z"/>
</g>
</svg>
