<svg id="Layer_1" data-name="Layer 1" xmlns="http://www.w3.org/2000/svg" viewBox="0 0 540 540"><defs><style>.cls-1{fill:#31006f;}.cls-2{fill:#c2e76b;}.cls-3{fill:#ff671d;}.cls-4{fill:#fff;}</style></defs><title>RANKO_ICONS</title><path class="cls-1" d="M252.71,75A25.94,25.94,0,1,0,226.78,49,26,26,0,0,0,252.71,75Zm0-40.31A14.38,14.38,0,1,1,238.34,49,14.38,14.38,0,0,1,252.71,34.66Z"/><path class="cls-2" d="M86.56,23.53A68.37,68.37,0,1,0,154.93,91.9,68.45,68.45,0,0,0,86.56,23.53Z"/><path class="cls-3" d="M265.5,150.55a10.3,10.3,0,0,1,11,13.64l-6.39,18.19.79.34c.88.36,1.75.73,2.63,1.12l2.15,1,.16.08a108.8,108.8,0,0,1,52.32,52.77c.06-.19.11-.37.16-.56,8.7-30.69,2.33-64.07-17.63-88.2-24.6-29.73-65.22-41.35-103-30.13l33.76,34.83Z"/><path class="cls-3" d="M316.58,244.71q-.57-1.61-1.2-3.18c-.44-1.1-.9-2.2-1.38-3.29-.14-.33-.29-.66-.43-1a98.59,98.59,0,0,0-42.69-46.09,2.69,2.69,0,0,1-.29-.16c-.82-.43-1.65-.86-2.48-1.27-1.14-.56-2.28-1.1-3.45-1.62l-1.07-.46c-1.46-.63-2.93-1.23-4.43-1.78l-.17-.06c-2.68-1-5.41-1.86-8.19-2.59-37.33-9.84-77.12,4.36-101.31,35.5l47.74,8.66L215,210.89a10.32,10.32,0,0,1,16.92,4.67l5.59,19.13,80.59,14.6C317.65,247.75,317.13,246.22,316.58,244.71Z"/><path class="cls-3" d="M344,225.64l.23-.3c.66-.89,1.34-1.76,2-2.63l.47-.6a110.75,110.75,0,0,1,8.32-9.26l.57-.56c.78-.76,1.57-1.51,2.36-2.25l.81-.73q1.11-1,2.25-2c.29-.26.6-.51.9-.77.75-.63,1.51-1.24,2.27-1.85l.93-.73c.79-.62,1.6-1.23,2.41-1.82l.85-.63c.92-.66,1.86-1.31,2.8-1.94l.54-.37c2.28-1.51,4.63-2.94,7-4.28l.81-.43c.91-.5,1.82-1,2.75-1.46l1.19-.59c.81-.4,1.62-.79,2.44-1.16l1.36-.62,2.36-1,1.44-.59,2.37-.9,1.46-.54c.83-.29,1.66-.56,2.5-.83l1.06-.35-6.85-19.53a10.31,10.31,0,0,1,11-13.63l29.54,3.76,40.73-41.95c-44.75-14-93.12-.51-122.35,34.74a108.62,108.62,0,0,0-14.94,23.76A109.41,109.41,0,0,1,344,225.64Z"/><path class="cls-3" d="M426.75,191.12a93.27,93.27,0,0,0-20.28,2.23l-2.25.54-1.28.31c-1,.27-2.06.56-3.07.87l-1,.31c-.7.22-1.39.43-2.08.67l-1.12.4c-.63.22-1.26.44-1.88.68l-1.15.46-1.81.73-1.13.49c-.6.26-1.2.52-1.79.8l-1.09.51c-.6.29-1.2.58-1.8.89l-1,.52-1.83,1-.93.52c-.63.35-1.26.72-1.88,1.09l-.83.5c-.66.4-1.31.81-2,1.22l-.7.45c-.7.46-1.39.93-2.07,1.4l-.53.37c-.76.53-1.51,1.08-2.25,1.64l-.29.21a99.78,99.78,0,0,0-35.12,50.35l80.56-14.6,5.6-19.13a10.31,10.31,0,0,1,16.91-4.67h0l17.8,16.5,47.74-8.65C485.18,205.14,456.38,191.12,426.75,191.12Z"/><path class="cls-1" d="M502.47,448a5.81,5.81,0,0,0-3.46-5.31c-11.55-5.16-23-7.51-34.36-7-16.26.75-27.17,7.18-36.8,12.85-9.93,5.85-18.5,10.89-32.14,10.3-12.09-.53-18.35-5.08-25.62-10.34-7.7-5.58-16.42-11.91-32.18-12.81-17.69-1-28,5.55-38,11.89-8.94,5.69-17.38,11.06-31.91,11.26s-22.41-4.84-31.51-10.66c-9.33-6-19.91-12.74-37.95-12.5s-28.75,7.16-38.24,13.26c-9.12,5.87-17,10.92-30.72,9.91-11.77-.88-18.93-5.62-26.51-10.65-7.94-5.28-17-11.25-31.3-12.5a64,64,0,0,0-20.16,1.53,5.75,5.75,0,0,0-4.4,5.62v0a5.8,5.8,0,0,0,7.19,5.6,52,52,0,0,1,16.37-1.24c11.41,1,18.45,5.66,25.9,10.6,8.09,5.37,17.26,11.46,32.06,12.56,1.51.11,3,.16,4.39.16,15,0,24.34-6,33.44-11.88s17.46-11.22,32.13-11.42,22.45,4.83,31.56,10.67c9.32,6,19.86,12.71,37.9,12.48,17.82-.24,28.52-7.05,38-13.06,9.19-5.85,17.14-10.9,31.08-10.1,12.38.71,18.72,5.3,26.06,10.63,7.66,5.55,16.34,11.84,31.9,12.53,17.06.76,28-5.68,38.53-11.9,9.29-5.47,18.06-10.63,31.45-11.26q14.25-.66,29.16,6a5.77,5.77,0,0,0,8.13-5.27Z"/><path class="cls-1" d="M502.47,398.51a5.83,5.83,0,0,0-3.46-5.32c-11.55-5.15-23-7.5-34.36-7-16.26.75-27.17,7.18-36.8,12.85-9.93,5.85-18.5,10.9-32.14,10.3a37.43,37.43,0,0,1-14.39-3.29,5.72,5.72,0,0,0-8.19,5.12v.18a5.72,5.72,0,0,0,3.36,5.2,49,49,0,0,0,18.71,4.36c17.06.76,28-5.68,38.53-11.89,9.29-5.48,18.06-10.64,31.46-11.27,9.49-.44,19.23,1.57,29.15,6a5.77,5.77,0,0,0,8.13-5.27Z"/><path class="cls-1" d="M246.53,404.62a107.68,107.68,0,0,1-10-5.91c-9.33-6-19.91-12.73-37.95-12.5s-28.75,7.16-38.24,13.26c-9.12,5.87-17,10.92-30.72,9.91-11.77-.87-18.93-5.62-26.51-10.65-7.94-5.28-17-11.25-31.3-12.5a64,64,0,0,0-20.16,1.53,5.74,5.74,0,0,0-4.4,5.61v0a5.8,5.8,0,0,0,7.19,5.6,52,52,0,0,1,16.37-1.24c11.41,1,18.45,5.66,25.9,10.6,8.09,5.37,17.26,11.46,32.06,12.56,1.51.11,3,.16,4.39.16,15,0,24.34-6,33.44-11.88s17.46-11.22,32.13-11.42,22.45,4.84,31.56,10.67a114.39,114.39,0,0,0,11.39,6.65,5.78,5.78,0,0,0,8.28-5.85A6,6,0,0,0,246.53,404.62Z"/><path class="cls-1" d="M141.93,233.49l56.44,10.24a10.36,10.36,0,0,0,8.85-2.59l16.12-14.95,5,17.18a10.26,10.26,0,0,0,8.06,7.26l67.38,12.22A496.09,496.09,0,0,0,281.71,445a55.63,55.63,0,0,0,12.22-5.52h-.19q-1-18.54-.64-37.07h37.36q.81,10.62,2.25,21.4c1.66-.05,3.38,0,5.2.06a57.19,57.19,0,0,1,7.39.91c-8.66-62-.57-121.6,8.19-161.85l67.73-12.28a10.25,10.25,0,0,0,8.06-7.26l5-17.18,16.12,14.95a10.41,10.41,0,0,0,8.86,2.59l56.43-10.24a7.42,7.42,0,0,0,4.86-11.4c-25-37.57-69-56.44-111.52-48.56L402.91,156l27.27,3.47a10.3,10.3,0,0,0,8.7-3.05l46.84-48.27a7.41,7.41,0,0,0-2.67-12.09C431.43,76.29,373.77,90.72,339.6,132a121,121,0,0,0-12.4,18.13,101.41,101.41,0,0,0-8.68-12.22C289,102.16,239.07,89.54,194.34,106.5a7.43,7.43,0,0,0-2.69,12.1l39.9,41.2a10.33,10.33,0,0,0,8.7,3l21.81-2.76-5.36,15.27-.41-.11c-44.84-11.83-92.75,7-119.22,46.84a7.42,7.42,0,0,0,4.86,11.4ZM293.53,390q.87-18.58,3.16-37.07h32.85c-.44,12-.43,24.42.16,37.07Zm36.61-49.42H298.4q2.82-18.64,7.07-37.07h28.34C332.24,315.22,331,327.64,330.14,340.61Zm5.48-49.43H308.5q3.42-13.14,7.57-26.11l7.79,1.41c.68.43,16.5-1.19,16.5-1.19C338.69,273.28,337.09,282,335.62,291.18Zm68.88-104c.43-.12.85-.22,1.28-.32l2.25-.53a93.3,93.3,0,0,1,20.29-2.24c29.63,0,58.42,14,77.5,38.62l-47.74,8.66-17.8-16.51h0a10.31,10.31,0,0,0-16.91,4.67l-5.59,19.14L337.21,253.3a99.86,99.86,0,0,1,35.12-50.38l.29-.22c.74-.55,1.49-1.1,2.25-1.64l.53-.36,2.07-1.4.71-.45q1-.63,1.95-1.23l.83-.5c.62-.37,1.25-.73,1.88-1.09l.94-.52,1.82-1,1-.52c.59-.31,1.19-.6,1.8-.89l1.08-.51c.59-.28,1.19-.54,1.8-.8l1.12-.49c.6-.26,1.21-.5,1.81-.74l1.16-.45c.62-.24,1.24-.46,1.87-.68l1.12-.41,2.08-.67,1-.3C402.45,187.76,403.47,187.47,404.5,187.2Zm-55.39-47.33c29.23-35.28,77.6-48.77,122.35-34.77l-40.73,42-29.54-3.77a10.31,10.31,0,0,0-11,13.64L397,176.5c-.36.11-.71.24-1.06.36-.84.27-1.67.54-2.5.83l-1.46.53-2.37.91-1.44.59c-.79.33-1.57.66-2.36,1l-1.36.61c-.82.38-1.63.77-2.44,1.17l-1.19.59c-.93.47-1.84,1-2.75,1.46l-.81.43c-2.39,1.34-4.74,2.77-7,4.29l-.54.36c-.94.64-1.88,1.28-2.8,2-.28.2-.56.42-.85.62-.81.6-1.62,1.21-2.41,1.82l-.93.74c-.76.61-1.52,1.22-2.27,1.85l-.9.77q-1.14,1-2.25,2l-.8.74c-.8.73-1.59,1.49-2.36,2.25l-.58.56a110.93,110.93,0,0,0-8.32,9.26l-.47.6c-.69.87-1.36,1.75-2,2.64l-.22.29a109.72,109.72,0,0,0-8.34-52.07A108.68,108.68,0,0,1,349.11,139.87Zm-109.4,10.6L206,115.61c37.82-11.23,78.44.41,103,30.16,20,24.14,26.34,57.55,17.63,88.27l-.15.55a108.94,108.94,0,0,0-52.33-52.81l-.15-.07c-.72-.34-1.44-.66-2.16-1s-1.75-.76-2.63-1.12l-.79-.34,6.4-18.2a10.32,10.32,0,0,0-11-13.65Zm13.43,36.73c2.78.73,5.51,1.6,8.19,2.59l.17.06c1.5.55,3,1.15,4.43,1.78l1.07.46q1.74.78,3.45,1.62c.83.41,1.65.84,2.47,1.28l.29.15a98.7,98.7,0,0,1,42.7,46.13c.14.32.29.65.43,1,.48,1.09.94,2.19,1.38,3.29s.82,2.11,1.2,3.18c.55,1.51,1.07,3,1.54,4.59l-80.59-14.62-5.59-19.14a10.32,10.32,0,0,0-16.92-4.67l-17.79,16.51-47.75-8.66C176,191.57,215.81,177.35,253.14,187.2Z"/><path class="cls-1" d="M502.47,494.31A5.83,5.83,0,0,0,499,489c-11.55-5.16-23-7.51-34.36-7-16.26.75-27.17,7.18-36.8,12.85-9.93,5.85-18.5,10.89-32.14,10.3-12.09-.54-18.35-5.08-25.62-10.34-7.7-5.58-16.42-11.91-32.18-12.81-17.69-1-28,5.54-38,11.89C291,499.6,282.57,505,268,505.17s-22.41-4.83-31.51-10.65c-9.33-6-19.91-12.74-37.95-12.5s-28.75,7.16-38.24,13.26c-9.12,5.86-17,10.92-30.72,9.91-11.77-.88-18.93-5.63-26.51-10.66-7.94-5.27-17-11.24-31.3-12.49a63.68,63.68,0,0,0-20.16,1.53,5.74,5.74,0,0,0-4.4,5.61v0a5.8,5.8,0,0,0,7.19,5.6,52.26,52.26,0,0,1,16.37-1.25c11.41,1,18.45,5.67,25.9,10.61,8.09,5.37,17.26,11.45,32.06,12.55,1.51.12,3,.17,4.39.17,15,0,24.34-6,33.44-11.88s17.46-11.22,32.13-11.42,22.45,4.83,31.56,10.66c9.32,6,19.86,12.72,37.9,12.49,17.82-.25,28.52-7.06,38-13.07,9.19-5.84,17.14-10.89,31.08-10.09,12.38.71,18.72,5.3,26.06,10.62,7.66,5.55,16.34,11.85,31.9,12.53,17.06.77,28-5.67,38.53-11.89,9.29-5.47,18.06-10.64,31.45-11.26q14.25-.66,29.16,6a5.77,5.77,0,0,0,8.13-5.28Z"/><path class="cls-4" d="M124.31,78.49,123.83,77l-.06-.17-.17-.45-.06-.16-2.08-4.61a1.09,1.09,0,0,0-.08-.15l-.48-.88a1.62,1.62,0,0,0-.1-.18l-1.17-1.91a1,1,0,0,0-.11-.15l-.78-1.14a.83.83,0,0,0-.08-.12l-1.11-1.45a.22.22,0,0,0-.07-.09l-.39-.51-.09-.1-.33-.41-.08-.1-.2-.23-.08-.09L116,63.7a1.37,1.37,0,0,0-.17-.17l-1.94-2-.22-.21-1.84-1.63-.12-.1-2.87-2.15-.13-.09-.6-.4-.15-.1-.51-.33-.17-.11-1-.59-.1-.06L104.75,55l-.1-.06-.64-.34-.13-.06-1.74-.81-.11-.05-5.67-1.93-.11,0-1.85-.42-.68-4.79A5.51,5.51,0,0,0,83.82,44a5.6,5.6,0,0,0-1.06,4.1l.36,2.51-1.49.15-2.86.46-.36-2.55h0a5.5,5.5,0,0,0-9.85-2.53l-.77,1A2.41,2.41,0,0,0,67.27,49l.86,6-.27.13-.24.13-1.46.83-.19.11L64.09,57.4l-.13.09-.54.4-4.06,3.34-.12.11-2.67,2.77-.17.2-2.18,2.8a.86.86,0,0,0-.07.1l-.75,1.07a2.39,2.39,0,0,0-.13.21l-.4.63-.12.2L51.8,71l-.06.1-.41.72-.1.2-.7,1.48-.06.13-.47,1a1.17,1.17,0,0,0-.09.24l-.52,1.27a2.46,2.46,0,0,0-.16.48l-.34.94a.49.49,0,0,0,0,.11l-.19.58a1.05,1.05,0,0,0,0,.19l-.53,1.9c0,.06,0,.12,0,.18l-.23.92a1.74,1.74,0,0,0-.05.22l-.29,1.58L47,87.32l-.07.86a1.23,1.23,0,0,0,0,.27L47,93.38,47.2,95l.29,2,.13.72.76,3.25,0,.13,1.41,4.06a2.2,2.2,0,0,0,.09.21L51,107.68a.54.54,0,0,0,.07.13l1.75,3.13.08.13.49.77.1.15.75,1.07.09.13,2,2.53a.65.65,0,0,0,.11.12l.29.33a1.13,1.13,0,0,0,.1.13L58,117.56a1.59,1.59,0,0,1,.13.13l2,1.91a1.14,1.14,0,0,0,.16.15l.65.57.18.15,1,.82.1.07,1.06.78-2.23.31a5.5,5.5,0,1,0,1.54,10.9l52.69-7.43a5.5,5.5,0,0,0-1.53-10.9l-24.59,3.46-2.51.16-4.22-.3-2.81-.55L77.14,117l-3.08-1.29-.51-.27-.15-.08-2-1.12-2.35-1.62-.72-.6-.11-.1-1.64-1.43s-.17-.17-.28-.29a5.44,5.44,0,0,0-.71-.73l-1.72-2-2.14-3.16-1.39-2.72-1.16-3-.6-2.43-.3-1.52L58,91.33,58,87.88l.19-1.79s0-.08,0-.12l.07-.57.48-2.22,0-.12.12-.6.29-.86.06-.16.33-1.06.63-1.5.06-.16,1.16-2.41.85-1.42.08-.13L62.9,74c.05-.07.1-.14.14-.21l.33-.45.1-.12.86-1.13,1.08-1.31,1.09-1.08.18-.16,1.07-1,.12-.1,1-.83.29-.2a1.89,1.89,0,0,0,.27-.2l.41-.31,2.5,17.67A5.52,5.52,0,0,0,83.24,83L80.32,62.22l3.16-.52,1.19-.1,2.94,20.84a5.5,5.5,0,0,0,9.88,2.49,5.55,5.55,0,0,0,1.07-4.09L96.07,63.23l1.07.41.17.07,3,1.43,3.1,2a1.82,1.82,0,0,0,.23.15l.69.54,2.23,2,.1.11.27.26,2.56,3,.08.1.38.54L110,74l1.45,2.36a1,1,0,0,0,.11.17l1.86,4.27.05.13,1.23,5.15a2.42,2.42,0,0,0,4.32,1l4.86-6.45A2.68,2.68,0,0,0,124.4,79,2.63,2.63,0,0,0,124.31,78.49Z"/></svg>