<svg id="Layer_1" data-name="Layer 1" xmlns="http://www.w3.org/2000/svg" viewBox="0 0 540 540"><defs><style>.cls-1{fill:#c2e76b;}.cls-2{fill:#31006f;}.cls-3{fill:#ff671d;}</style></defs><title>RANKO_ICONS</title><rect class="cls-1" x="255.64" y="252" width="45.95" height="57.44"/><rect class="cls-1" x="347.55" y="252" width="45.95" height="57.44"/><rect class="cls-1" x="163.73" y="252" width="45.95" height="57.44"/><path class="cls-2" d="M487.81,186.92,284.33,30.4a9.38,9.38,0,0,0-11.42,0L69.43,186.92a9.68,9.68,0,0,0,5.9,17.36h29.84V453.05H43.1a5.75,5.75,0,0,0,0,11.49H341.8a5.75,5.75,0,1,0,0-11.49H257V366.73a11.87,11.87,0,0,0-11.85-11.85h-69.6a11.87,11.87,0,0,0-11.85,11.85v86.32H116.66V204.28H440.57V349.65a5.75,5.75,0,1,0,11.49,0V204.28H481.9a9.68,9.68,0,0,0,5.91-17.36ZM175.22,366.73a.36.36,0,0,1,.36-.36h69.6a.36.36,0,0,1,.36.36v86.32H175.22ZM80.64,192.79l198-152.29,198,152.29Z"/><path class="cls-2" d="M257,240.35a8.68,8.68,0,0,0-8.67,8.67v59.6a8.68,8.68,0,0,0,8.67,8.67h43.24a8.68,8.68,0,0,0,8.66-8.67V249a8.68,8.68,0,0,0-8.66-8.67Zm40.41,65.45H259.82v-54h37.59Z"/><path class="cls-2" d="M163.53,240.35a8.68,8.68,0,0,0-8.67,8.67v59.6a8.68,8.68,0,0,0,8.67,8.67h43.23a8.68,8.68,0,0,0,8.67-8.67V249a8.68,8.68,0,0,0-8.67-8.67Zm40.41,65.45H166.35v-54h37.59Z"/><path class="cls-2" d="M393.71,240.35H350.47A8.68,8.68,0,0,0,341.8,249v59.6a8.68,8.68,0,0,0,8.67,8.67h43.24a8.67,8.67,0,0,0,8.66-8.67V249A8.67,8.67,0,0,0,393.71,240.35Zm-2.82,65.45h-37.6v-54h37.6Z"/><path class="cls-3" d="M430.84,367.93a71.81,71.81,0,1,0,71.8,71.81A71.81,71.81,0,0,0,430.84,367.93Zm27.29,54.7L430,464.87a3.65,3.65,0,0,1-5.63.55l-20-20a6.19,6.19,0,0,1,0-8.77h0a6.19,6.19,0,0,1,8.77,0l12.48,12.47,22.23-33.36a6.21,6.21,0,0,1,8.61-1.72h0A6.21,6.21,0,0,1,458.13,422.63Z"/></svg>