<svg id="Layer_1" data-name="Layer 1" xmlns="http://www.w3.org/2000/svg" viewBox="0 0 540 540"><defs><style>.cls-1{fill:#ff671d;}.cls-2{fill:#c2e76b;}.cls-3{fill:#31006f;}</style></defs><title>RANKO_ICONS</title><path class="cls-1" d="M221.63,207.63c-65.79-2.89-113.83,18-137.15,29l5.3,7.63,146.42,7.08Z"/><path class="cls-2" d="M272.79,214.45a297.9,297.9,0,0,0-39-6l14.5,43.51,136.63,6.6C357.93,242.24,316.85,224.26,272.79,214.45Z"/><path class="cls-3" d="M64.78,265.69Z"/><path class="cls-3" d="M518.85,303.27a68.21,68.21,0,0,0-4.14-6.68l-.15-.22c-.47-.67-.94-1.32-1.43-2a3.55,3.55,0,0,1-.23-.31c-.48-.62-1-1.24-1.47-1.85l-.27-.33c-.5-.6-1-1.21-1.54-1.8l-.23-.25a70.16,70.16,0,0,0-7.39-7.14l-.27-.23c-.48-.4-1-.78-1.47-1.17l-.81-.63-1.33-1-1-.73c-.42-.29-.84-.58-1.27-.86s-.78-.52-1.18-.77l-1.21-.75c-.44-.27-.88-.52-1.32-.78l-1.16-.66c-.48-.27-1-.53-1.47-.78l-1.08-.56c-.57-.29-1.14-.56-1.72-.83l-.9-.42c-.89-.4-1.78-.78-2.68-1.14l-70.91-28.36a395,395,0,0,0-160.73-60.14C209.4,177.19,126,173.49,39.81,213.18c-5.58,2.57-11.16,5.32-16.57,8.17a11.15,11.15,0,0,0-5.83,11.74h0L19.23,244h0l7.3,43.78-5.72,34.33a30.84,30.84,0,0,0,24.73,35.24l25.73,4.72a48.13,48.13,0,0,0,94.93.85H374.92a48.13,48.13,0,0,0,94.78,0h28.83a18.9,18.9,0,0,0,18.36-14.43l5-22.29A32.93,32.93,0,0,0,518.85,303.27Zm-33.52-18.36q1.31.7,2.55,1.47l.17.1c.89.55,1.75,1.13,2.61,1.72l.72.52c.64.46,1.28.93,1.9,1.42l.68.53c.81.65,1.61,1.32,2.38,2l.26.23c.68.63,1.36,1.26,2,1.92l.66.66c.56.58,1.11,1.16,1.64,1.76.18.19.36.38.53.58.68.78,1.35,1.57,2,2.39.13.16.25.34.38.51.52.66,1,1.34,1.5,2l.27.38-7.18-.94L485,284.74ZM155.61,357h0A36.88,36.88,0,0,1,82,357V357c-.05-.8-.09-1.61-.09-2.43a36.89,36.89,0,0,1,73.78,0C155.7,355.34,155.66,356.15,155.61,357Zm303.5,0V357a36.88,36.88,0,0,1-73.6,0V357c-.05-.8-.09-1.61-.09-2.43a36.89,36.89,0,0,1,73.78,0C459.2,355.34,459.16,356.15,459.11,357Zm51.83-33.2-5,22.16a7.63,7.63,0,0,1-7.42,5.78H470.37c0-.39-.07-.78-.1-1.18s0-.69-.09-1-.11-1-.18-1.42c0-.31-.07-.63-.12-.95-.08-.52-.18-1-.28-1.55-.05-.25-.09-.51-.14-.77q-.48-2.31-1.17-4.53l-.21-.63c-.17-.53-.34-1.05-.53-1.57-.1-.27-.21-.52-.31-.78-.17-.46-.35-.92-.54-1.37l-.37-.84c-.19-.42-.37-.84-.57-1.26s-.29-.57-.43-.85-.4-.8-.61-1.2l-.48-.84c-.22-.39-.43-.77-.66-1.14s-.35-.56-.52-.84-.46-.73-.7-1.09l-.57-.82c-.24-.35-.49-.7-.74-1l-.61-.81-.78-1-.66-.78c-.27-.32-.54-.64-.82-1l-.7-.75c-.28-.31-.56-.61-.86-.91l-.73-.72-.89-.86-.77-.69c-.31-.28-.62-.55-.94-.81s-.53-.45-.8-.66-.64-.52-1-.77l-.84-.62c-.33-.25-.66-.48-1-.72l-.87-.59-1-.66c-.29-.19-.59-.37-.89-.55l-1.07-.62-.93-.51-1.1-.56-.94-.47q-.57-.27-1.14-.51c-.32-.15-.64-.29-1-.42s-.78-.32-1.17-.47l-1-.37-1.2-.41-1-.33-1.23-.35c-.34-.09-.67-.19-1-.27l-1.28-.3-1-.23-1.33-.23-1-.18-1.43-.18-.94-.11c-.53-.06-1.06-.09-1.6-.13l-.8-.05c-.81,0-1.62-.07-2.43-.07s-1.62,0-2.43.07l-.8.05c-.54,0-1.07.07-1.6.13l-.94.11-1.43.18-1,.18-1.33.23-1,.23-1.28.3c-.34.08-.67.18-1,.27l-1.23.35-1,.33-1.2.41-1,.37c-.39.15-.79.3-1.17.47s-.65.27-1,.42-.76.33-1.14.51l-.94.47-1.1.56-.93.51-1.07.62c-.3.18-.6.36-.89.55l-1,.66-.87.59c-.34.24-.67.47-1,.72l-.84.62-1,.77c-.27.21-.54.43-.8.66s-.63.53-.94.81l-.77.69-.89.86-.73.72c-.3.3-.58.6-.86.91l-.7.75c-.28.31-.55.63-.82,1l-.66.78-.78,1-.61.81c-.25.34-.5.69-.74,1l-.57.82c-.24.36-.47.72-.7,1.09s-.35.55-.52.84-.44.75-.66,1.14l-.48.84c-.21.4-.41.8-.61,1.2s-.29.56-.43.85-.38.84-.57,1.26l-.37.84c-.19.45-.37.91-.54,1.37-.1.26-.21.51-.31.78-.19.52-.36,1-.53,1.57l-.21.63q-.69,2.22-1.17,4.53c-.05.26-.09.52-.14.77-.1.52-.2,1-.28,1.55-.05.32-.08.64-.12.95-.07.47-.13.94-.18,1.42s-.06.69-.09,1-.07.79-.1,1.18H166.87c0-.39-.07-.78-.1-1.18s-.05-.69-.09-1-.11-1-.18-1.42c0-.31-.07-.63-.12-.95-.08-.52-.18-1-.28-1.57,0-.25-.09-.5-.14-.75-.32-1.54-.71-3.05-1.17-4.54-.06-.19-.13-.39-.2-.58q-.26-.81-.54-1.62c-.1-.25-.2-.49-.29-.74-.18-.47-.36-.94-.56-1.41-.11-.27-.24-.53-.36-.8-.19-.43-.38-.87-.58-1.3l-.42-.82c-.2-.41-.41-.82-.62-1.22s-.31-.55-.47-.83-.44-.78-.67-1.16-.34-.54-.51-.81-.47-.75-.71-1.12-.37-.53-.56-.8l-.75-1.06-.6-.78-.8-1-.64-.76c-.27-.32-.55-.65-.84-1s-.44-.49-.67-.73-.58-.62-.88-.92l-.71-.71-.92-.88-.75-.67c-.32-.28-.63-.56-1-.83l-.78-.65-1-.78-.81-.6-1-.74-.85-.57c-.35-.23-.7-.46-1.06-.68l-.87-.54-1.09-.63-.91-.49-1.12-.58-.93-.46-1.15-.52-.95-.41c-.39-.17-.79-.32-1.19-.47l-1-.37-1.21-.41-1-.32-1.25-.36c-.33-.09-.66-.19-1-.27s-.86-.21-1.29-.3l-1-.23-1.34-.24-1-.17-1.43-.18-.94-.11c-.53-.06-1.06-.09-1.6-.13l-.8-.05c-.8,0-1.61-.07-2.43-.07s-1.61,0-2.41.07l-.8.05c-.53,0-1.06.07-1.58.12l-1,.12c-.47.05-.94.11-1.4.18l-1,.17-1.32.23-1,.22c-.42.1-.85.19-1.26.3l-1,.27-1.22.35-1,.32-1.19.4-1,.37-1.15.46-1,.41-1.12.51-1,.46c-.37.18-.73.37-1.09.56l-.93.5-1.06.61-.9.54-1,.66-.86.58c-.34.24-.67.47-1,.72l-.84.61-1,.76-.79.64-1,.83c-.25.22-.51.43-.75.66s-.62.59-.93.89l-.7.67c-.32.32-.62.65-.93,1s-.42.43-.62.66-.66.75-1,1.13l-.5.57c-.47.58-.94,1.17-1.39,1.78l0,0c-.44.59-.87,1.19-1.28,1.8l-.42.64c-.27.42-.54.84-.8,1.26-.16.26-.31.53-.47.8s-.46.77-.67,1.17-.3.57-.45.86-.41.77-.6,1.16-.28.61-.42.91-.36.77-.53,1.16-.26.64-.39,1-.32.77-.46,1.17-.24.66-.36,1-.27.78-.4,1.18-.21.68-.31,1-.23.79-.34,1.19-.18.7-.27,1.05-.19.81-.28,1.21-.15.72-.22,1.08-.15.81-.22,1.22-.12.74-.17,1.11-.11.82-.16,1.23-.08.75-.11,1.12l-.06.5-23.26-4.27A19.55,19.55,0,0,1,31.9,324l4.71-28.28,34-20.37h0a8.54,8.54,0,0,0-.16-14.75L29.5,237.21l-1-5.93c5.23-2.75,10.62-5.4,16-7.88,83.58-38.5,164.58-34.9,205.43-29.33a383.81,383.81,0,0,1,156.58,58.72l.46.31,57.13,22.84,26.06,34a8.52,8.52,0,0,0,5.63,3.26l15.39,2A22.47,22.47,0,0,1,510.94,323.75Zm-479-72.23,28.93,16.54L37,282.34Z"/><path class="cls-3" d="M402.37,257.72c-25.8-19-76.4-43.71-131.28-55.93-100.89-22.46-172.91,12.12-200,25.15a7.1,7.1,0,0,0-2.75,10.44l9.24,13.31a7.12,7.12,0,0,0,5.49,3l40.78,2-2.65,10.63a25.38,25.38,0,0,0,19.65,31.05A55.18,55.18,0,0,1,179.6,327l1,2a25.26,25.26,0,0,0,22.71,14H346a19.61,19.61,0,0,0,19.59-19.59v-56.1L398.39,269h.27a6.24,6.24,0,0,0,3.71-11.26ZM85.63,242.6,80.34,235c23.32-11.06,71.36-31.91,137.15-29l14.57,43.72ZM190.68,324l-1-2A66.32,66.32,0,0,0,143,286.35a14.14,14.14,0,0,1-10.95-17.3l3.2-12.79,99.86,4.82v70.75H203.33A14.08,14.08,0,0,1,190.68,324Zm163.63-.52a8.35,8.35,0,0,1-8.34,8.34H246.39v-70.2l107.92,5.21Zm-110.2-73.23-14.5-43.51a297.76,297.76,0,0,1,39,6c44.07,9.81,85.15,27.79,112.1,44.09Z"/><path class="cls-3" d="M422.31,326.37a28.16,28.16,0,1,0,28.16,28.15A28.19,28.19,0,0,0,422.31,326.37Zm0,45.06a16.91,16.91,0,1,1,16.91-16.91A16.93,16.93,0,0,1,422.31,371.43Z"/><path class="cls-3" d="M118.81,326.37A28.16,28.16,0,1,0,147,354.52,28.19,28.19,0,0,0,118.81,326.37Zm0,45.06a16.91,16.91,0,1,1,16.91-16.91A16.93,16.93,0,0,1,118.81,371.43Z"/><path class="cls-3" d="M266.18,280.18l18.54.23a5.63,5.63,0,1,0,.14-11.25l-18.54-.23a5.63,5.63,0,0,0-.14,11.25Z"/><path class="cls-3" d="M185.57,267.94,167,267.71a5.63,5.63,0,1,0-.13,11.25l18.54.23a5.63,5.63,0,0,0,.14-11.25Z"/><path class="cls-3" d="M353.08,98.77a25.67,25.67,0,0,1-25.64-25.64V63.19a25.64,25.64,0,0,1,51.27,0v9.94A25.66,25.66,0,0,1,353.08,98.77Zm0-49.73a14.17,14.17,0,0,0-14.15,14.15v9.94a14.15,14.15,0,1,0,28.29,0V63.19A14.16,14.16,0,0,0,353.08,49Z"/><path class="cls-3" d="M432.63,158.44A25.66,25.66,0,0,1,407,132.8v-9.94a25.64,25.64,0,1,1,51.27,0v9.94A25.67,25.67,0,0,1,432.63,158.44Zm0-49.73a14.16,14.16,0,0,0-14.14,14.15v9.94a14.15,14.15,0,1,0,28.29,0v-9.94A14.17,14.17,0,0,0,432.63,108.71Z"/><path class="cls-3" d="M352.11,160.47h0a5.75,5.75,0,0,1-1.67-7.95L425.65,37.19a5.75,5.75,0,0,1,8-1.67h0a5.75,5.75,0,0,1,1.67,7.95L360.06,158.8A5.74,5.74,0,0,1,352.11,160.47Z"/><path class="cls-1" d="M371.39,471H187.81a5.74,5.74,0,0,1-5.74-5.74h0a5.74,5.74,0,0,1,5.74-5.73H371.39a5.73,5.73,0,0,1,5.73,5.73h0A5.73,5.73,0,0,1,371.39,471Z"/><path class="cls-1" d="M371.39,471H187.81a5.74,5.74,0,0,1-5.74-5.74h0a5.74,5.74,0,0,1,5.74-5.73H371.39a5.73,5.73,0,0,1,5.73,5.73h0A5.73,5.73,0,0,1,371.39,471Z"/><path class="cls-1" d="M428.76,505.41H233.7a5.73,5.73,0,0,1-5.73-5.73h0a5.73,5.73,0,0,1,5.73-5.74H428.76a5.73,5.73,0,0,1,5.73,5.74h0A5.73,5.73,0,0,1,428.76,505.41Z"/><path class="cls-1" d="M428.76,505.41H233.7a5.73,5.73,0,0,1-5.73-5.73h0a5.73,5.73,0,0,1,5.73-5.74H428.76a5.73,5.73,0,0,1,5.73,5.74h0A5.73,5.73,0,0,1,428.76,505.41Z"/><path class="cls-1" d="M474.65,471H405.81a5.74,5.74,0,0,1-5.74-5.74h0a5.74,5.74,0,0,1,5.74-5.73h68.84a5.74,5.74,0,0,1,5.74,5.73h0A5.74,5.74,0,0,1,474.65,471Z"/><path class="cls-1" d="M40.87,86.77H166.41A5.74,5.74,0,0,0,172.15,81h0a5.74,5.74,0,0,0-5.74-5.74H40.61A11.73,11.73,0,0,1,28.76,64.61,11.48,11.48,0,0,1,40.2,52.35h0a5.74,5.74,0,0,0,5.74-5.74h0a5.74,5.74,0,0,0-5.74-5.74h0A23,23,0,0,0,17.28,65C17.89,77.3,28.53,86.77,40.87,86.77Z"/><rect class="cls-1" x="137.73" y="103.98" width="91.79" height="11.47" rx="5.74"/><rect class="cls-1" x="80.36" y="103.98" width="34.42" height="11.47" rx="5.74"/></svg>