<svg id="Layer_1" data-name="Layer 1" xmlns="http://www.w3.org/2000/svg" viewBox="0 0 297.64 116.22"><defs><style>.cls-1{fill:#372d78;}.cls-2{fill:#ff7340;}</style></defs><title>Ranko_LOGO_RGB</title><path class="cls-1" d="M123.55,106.62a1.16,1.16,0,0,1-.43,1,3.16,3.16,0,0,1-1.18.48,11.9,11.9,0,0,1-2.19.15,12.93,12.93,0,0,1-2.21-.15,2.71,2.71,0,0,1-1.21-.48,1.22,1.22,0,0,1-.37-1v-4.81a23.74,23.74,0,0,1-7,5.24,18.58,18.58,0,0,1-8.2,1.87,22.35,22.35,0,0,1-6.87-1,14.8,14.8,0,0,1-5.24-2.86,12.89,12.89,0,0,1-3.36-4.59,15.11,15.11,0,0,1-1.21-6.2,14.35,14.35,0,0,1,1.66-7,13.62,13.62,0,0,1,4.76-5,23.27,23.27,0,0,1,7.58-3,47.14,47.14,0,0,1,10.11-1h6.62V74.56a18.2,18.2,0,0,0-.59-4.91,8.45,8.45,0,0,0-1.89-3.56A8.36,8.36,0,0,0,108.9,64a15.85,15.85,0,0,0-5.13-.72,20.31,20.31,0,0,0-5.85.78,32,32,0,0,0-4.54,1.71c-1.3.62-2.39,1.19-3.26,1.71a4.54,4.54,0,0,1-2,.77,1.32,1.32,0,0,1-.75-.21,1.78,1.78,0,0,1-.56-.64,3.31,3.31,0,0,1-.35-1.1,9.37,9.37,0,0,1-.11-1.47,9.67,9.67,0,0,1,.19-2.11,3.17,3.17,0,0,1,.91-1.47A11.93,11.93,0,0,1,90,59.57a27.41,27.41,0,0,1,4.06-1.71,36.36,36.36,0,0,1,5-1.28,29.89,29.89,0,0,1,5.51-.51,29,29,0,0,1,8.81,1.18,14.18,14.18,0,0,1,5.88,3.44,13.41,13.41,0,0,1,3.26,5.64,27.25,27.25,0,0,1,1,7.86Zm-8.77-22h-7.53a29,29,0,0,0-6.31.61,13.31,13.31,0,0,0-4.44,1.82A7.56,7.56,0,0,0,93.91,90a8.67,8.67,0,0,0-.83,3.87,7.77,7.77,0,0,0,2.38,6,9.4,9.4,0,0,0,6.66,2.22,12.36,12.36,0,0,0,6.44-1.77,27.69,27.69,0,0,0,6.22-5.39Z"/><path class="cls-1" d="M180.59,106.57a1.22,1.22,0,0,1-.21.72,1.57,1.57,0,0,1-.7.51,4.88,4.88,0,0,1-1.33.32,18.16,18.16,0,0,1-2.14.1,18.75,18.75,0,0,1-2.19-.1,5,5,0,0,1-1.34-.32,1.6,1.6,0,0,1-.69-.51,1.23,1.23,0,0,1-.22-.72V78.41a27.65,27.65,0,0,0-.64-6.63,13.67,13.67,0,0,0-1.87-4.33,8.1,8.1,0,0,0-3.18-2.77,10,10,0,0,0-4.51-1,11.46,11.46,0,0,0-6.63,2.35A36.15,36.15,0,0,0,148,73v33.61a1.22,1.22,0,0,1-.21.72,1.63,1.63,0,0,1-.7.51,4.88,4.88,0,0,1-1.33.32,18.75,18.75,0,0,1-2.19.1,18.16,18.16,0,0,1-2.14-.1,5.24,5.24,0,0,1-1.36-.32,1.47,1.47,0,0,1-.7-.51,1.38,1.38,0,0,1-.19-.72V58.48a1.49,1.49,0,0,1,.17-.73,1.41,1.41,0,0,1,.64-.53,3.55,3.55,0,0,1,1.23-.32c.49,0,1.15-.08,2-.08s1.44,0,1.95.08a3,3,0,0,1,1.2.32,1.67,1.67,0,0,1,.62.53,1.39,1.39,0,0,1,.19.73v6.36a29.37,29.37,0,0,1,8.1-6.66,17.45,17.45,0,0,1,8.14-2.11,18.21,18.21,0,0,1,8.1,1.63,14.58,14.58,0,0,1,5.32,4.36,17.37,17.37,0,0,1,2.91,6.38,37.89,37.89,0,0,1,.88,8.79Z"/><path class="cls-1" d="M204.33,58.36a1.37,1.37,0,0,0-.21-.75,1.64,1.64,0,0,0-.7-.53,4.87,4.87,0,0,0-1.34-.32,18.44,18.44,0,0,0-2.19-.11,17.7,17.7,0,0,0-2.13.11,5.43,5.43,0,0,0-1.37.32,1.35,1.35,0,0,0-.69.53,1.44,1.44,0,0,0-.19.75v48.21a1.29,1.29,0,0,0,.19.72,1.38,1.38,0,0,0,.69.51,5.43,5.43,0,0,0,1.37.32,18,18,0,0,0,2.13.1,18.75,18.75,0,0,0,2.19-.1,4.87,4.87,0,0,0,1.34-.32,1.7,1.7,0,0,0,.7-.51,1.22,1.22,0,0,0,.21-.72Z"/><path class="cls-1" d="M290.55,82A36.13,36.13,0,0,1,289,92.81a23.77,23.77,0,0,1-4.62,8.52,21,21,0,0,1-7.7,5.59,26.82,26.82,0,0,1-10.71,2,27.81,27.81,0,0,1-10.34-1.76,19,19,0,0,1-7.35-5.13,21.73,21.73,0,0,1-4.38-8.18A37.65,37.65,0,0,1,242.45,83,36.46,36.46,0,0,1,244,72.13a23.33,23.33,0,0,1,4.59-8.52,20.69,20.69,0,0,1,7.67-5.56,27,27,0,0,1,10.74-2,27.63,27.63,0,0,1,10.34,1.77A18.86,18.86,0,0,1,284.67,63a22.07,22.07,0,0,1,4.41,8.18A37.08,37.08,0,0,1,290.55,82Zm-9.14.59a35.66,35.66,0,0,0-.73-7.38,18,18,0,0,0-2.4-6.09A11.92,11.92,0,0,0,273.75,65a14.91,14.91,0,0,0-7.11-1.52,15.17,15.17,0,0,0-6.77,1.39,12.41,12.41,0,0,0-4.67,3.92,17.71,17.71,0,0,0-2.72,6,30.74,30.74,0,0,0-.89,7.59,35.8,35.8,0,0,0,.73,7.43,17.26,17.26,0,0,0,2.43,6.07A12.13,12.13,0,0,0,259.3,100a15,15,0,0,0,7.12,1.52,15.19,15.19,0,0,0,6.74-1.39,12.29,12.29,0,0,0,4.69-3.9,16.91,16.91,0,0,0,2.7-6A32,32,0,0,0,281.41,82.58Z"/><path class="cls-1" d="M229.44,94.79h0l-5.4-5-6.91-6.41h0l-.79-.73,7.75-7.19h0l9.83-9.11A13.8,13.8,0,0,0,235,61a15.61,15.61,0,0,0-.55-4.22,1.9,1.9,0,0,0-2.4,0l-9.28,8.6-8.59,8-2.66,2.45h0l-7.4,6.87,15,13.86,3.67,3.4,9.28,8.61c1.68.83,2.4,0,2.4,0a15.74,15.74,0,0,0,.55-4.23,13.71,13.71,0,0,0-1.07-5.36Z"/><path class="cls-2" d="M64.6,86.82v0L56,78.8,44.87,68.52h0l-1.28-1.18L56,55.82h0L71.78,41.19a22.1,22.1,0,0,0,1.73-8.61,24.64,24.64,0,0,0-.89-6.77L57.73,39.62,44,52.4l-4.26,3.94h0l-11.88,11,24,22.24,5.88,5.46,14.89,13.81a24.71,24.71,0,0,0,.89-6.78,22.13,22.13,0,0,0-1.73-8.61Z"/><path class="cls-1" d="M67.93,17.59a31,31,0,0,0-14-8.12A64.51,64.51,0,0,0,36.27,7.09H7.09l1.1,22.08V87.05l-1.1,22.08H23.57L22.07,79V26.86a48.91,48.91,0,0,1,.62-9.1,6.6,6.6,0,0,1,3.16-4.53c1.7-1,4.44-1.55,8.2-1.55A31.71,31.71,0,0,1,43.33,13a25.67,25.67,0,0,1,7.93,4,19,19,0,0,1,5.55,6.55,19.28,19.28,0,0,1,2.06,9c0,.41-.06.79-.08,1.19L70.72,22.7l.52-.48A18.76,18.76,0,0,0,67.93,17.59Z"/></svg>