<svg id="Layer_1" data-name="Layer 1" xmlns="http://www.w3.org/2000/svg" viewBox="0 0 540 540"><defs><style>.cls-1{fill:#c2e76b;}.cls-2{fill:#ff671d;}.cls-3{fill:#31006f;}.cls-4{fill:#fff;}</style></defs><title>RANKO_ICONS</title><rect class="cls-1" x="172.78" y="442.33" width="252.74" height="34.47"/><path class="cls-2" d="M116.11,283a68.16,68.16,0,1,0,68.15,68.15A68.23,68.23,0,0,0,116.11,283Zm0,124.93a56.78,56.78,0,1,1,56.78-56.78A56.84,56.84,0,0,1,116.11,408Z"/><path class="cls-2" d="M441,258.22a51.1,51.1,0,1,0,51.1,51.1A51.09,51.09,0,0,0,441,258.22Z"/><path class="cls-2" d="M273.88,200.8c-7.07-5.77-34.71-29.71-40.22-70.39-7.91-58.32,36.85-97.71,40.22-100.57l-2.12,9.55a351.41,351.41,0,0,0,2.12,161.41Z"/><path class="cls-2" d="M308.87,271.2s-3.22-54.58,20.12-90.51c37-57,120.68-70.4,120.68-70.4s-27,51.88-60.34,90.51C360.5,234.21,308.87,271.2,308.87,271.2Z"/><path class="cls-1" d="M280.44,317.38s-9-47-36.57-72.42c-43.69-40.37-117.51-33.69-117.51-33.69S160.44,249.45,197,275C228.69,297.14,280.44,317.38,280.44,317.38Z"/><path class="cls-3" d="M448.93,105.68a236,236,0,0,0-47.49,14.11c-23.92,9.8-56.59,27.89-76.37,58.35-20.88,32.15-21.35,77.19-21,90.46-.34.92-.67,1.84-1,2.76A184.74,184.74,0,0,0,278.26,199a348.46,348.46,0,0,1-1.94-158.62l5.15-23.15-10.62,9A134.16,134.16,0,0,0,245.54,56.9c-14.21,23.4-19.92,49-16.52,74.13,5.32,39.21,30.54,64,41.25,72.85a176.27,176.27,0,0,1,24.26,105.26l-1.65,19.67c-2.62-5.28-5.48-10.46-8.52-15.43-2.59-11.29-12.85-49.26-37.31-71.86-44.71-41.29-118-35.18-121.11-34.9l-9.26.84,6.19,6.93c.34.38,34.77,38.8,71.49,64.46,30.76,21.49,79.75,41,84,42.74a191.65,191.65,0,0,1,12.89,26.59l-1.6,19.25a4.68,4.68,0,0,0,4.27,5.05h.39a4.65,4.65,0,0,0,4.65-4.28l4.86-58.3c.32-3.78.52-7.67.61-11.57,2.12-7.94,4.58-15.83,7.3-23.45,3.74-2.69,52.8-38.22,81.12-71,33.47-38.79,60.67-90.89,60.94-91.41l4.3-8.24Zm-90.77,86.71a275.9,275.9,0,0,1,36-36.47,4.71,4.71,0,0,0,.62-6.55,4.65,4.65,0,0,0-3.19-1.7l-.44,0a4.57,4.57,0,0,0-3,1.09,283.71,283.71,0,0,0-73.73,95.42c1.76-18.25,6.44-42.36,18.5-60.92C360.76,140.35,416.4,122.79,440.7,117c-8.84,15.79-30.31,52.28-54.91,80.79-19.51,22.61-49.85,47.08-67.54,60.62A277.06,277.06,0,0,1,358.16,192.39Zm-92.22-5.5c-11-11.9-24.12-31-27.65-57.11C233,90.91,252.47,60.57,265.83,44.83A359.47,359.47,0,0,0,265.94,186.89Zm-129.2,28.67c21.72-.16,71.71,3,104,32.83,12.41,11.46,20.89,27.84,26.14,40.83a174.53,174.53,0,0,0-36.57-32.34,176.42,176.42,0,0,0-53-23.44,4.69,4.69,0,0,0-5.75,3.45,4.69,4.69,0,0,0,3.36,5.58,165.45,165.45,0,0,1,94.61,65.3C251.64,300.12,221,286,199.72,271.19h0C173.28,252.72,147.63,227,136.74,215.56Z"/><path class="cls-3" d="M426.82,432.85H412.61v-29a10.33,10.33,0,0,0-10.31-10.31H283.51A10.32,10.32,0,0,0,273.2,403.9v29H178.89a10.32,10.32,0,0,0-10.31,10.31v28.95h-13a10.32,10.32,0,0,0-10.31,10.31v30a10.32,10.32,0,0,0,10.31,10.3h118.8a10.25,10.25,0,0,0,3.38-.58,10.19,10.19,0,0,0,3.37.58H400a10.31,10.31,0,0,0,10.31-10.3v-29h16.56a10.32,10.32,0,0,0,10.31-10.3v-30A10.32,10.32,0,0,0,426.82,432.85ZM284.57,405h18.52v12.31a5.69,5.69,0,0,0,11.38,0V405h22.75v12.31a5.69,5.69,0,1,0,11.37,0V405h22.75v12.31a5.69,5.69,0,0,0,11.38,0V405h18.51v27.88H284.57ZM180,444.22h16.53v12.87a5.69,5.69,0,0,0,11.38,0V444.22h22.74v12.87a5.69,5.69,0,0,0,11.38,0V444.22h22.75v12.87a5.69,5.69,0,1,0,11.37,0V444.22h20.51v27.89H180Zm93.38,67.15H156.68V483.48h17.06V496.9a5.69,5.69,0,1,0,11.38,0V483.48h22.75V496.9a5.69,5.69,0,1,0,11.37,0V483.48H242V496.9a5.69,5.69,0,1,0,11.37,0V483.48h20Zm125.55,0H284.71V483.48h14.15V496.9a5.69,5.69,0,1,0,11.38,0V483.48H333V496.9a5.69,5.69,0,1,0,11.37,0V483.48h22.75V496.9a5.69,5.69,0,1,0,11.37,0V483.48h20.41Zm26.86-39.26H309.09V444.22H333v12.87a5.69,5.69,0,1,0,11.37,0V444.22h22.75v12.87a5.69,5.69,0,1,0,11.37,0V444.22h22.75v12.87a5.69,5.69,0,0,0,11.38,0V444.22h13.14Z"/><path class="cls-3" d="M144.75,340.05l-.37-1.17a.5.5,0,0,0,0-.13l-.12-.35-.05-.12-1.59-3.52-.06-.12-.37-.67c0-.05,0-.09-.07-.14l-.9-1.46-.08-.12-.6-.87-.06-.09-.85-1.11-.05-.07-.3-.38-.07-.08-.25-.31-.07-.08-.14-.17-.07-.08-.24-.26-.12-.13-1.49-1.55a1.29,1.29,0,0,0-.17-.16l-1.4-1.25-.09-.08-2.2-1.64-.1-.07-.46-.31-.11-.07-.39-.25-.13-.08-.76-.46-.08,0-1.09-.59-.08,0-.49-.26-.1,0-1.33-.61-.08,0-4.33-1.48-.09,0-1.42-.32-.52-3.67a4.23,4.23,0,0,0-8.37,1.24l.27,1.92-1.14.12-2.18.35-.28-1.95h0a4.21,4.21,0,0,0-7.53-1.94l-.58.74a1.87,1.87,0,0,0-.41,1.44l.66,4.59-.2.09a.77.77,0,0,0-.18.1l-1.12.64-.14.08-1.44.93-.1.07-.42.31-3.1,2.55-.09.08-2,2.12a1,1,0,0,0-.13.16l-1.67,2.13-.06.08-.56.82a.91.91,0,0,0-.11.16l-.3.48-.09.15-.73,1.27,0,.08-.31.55a1.09,1.09,0,0,0-.08.15l-.54,1.14,0,.1-.36.78-.06.18-.4,1a2.29,2.29,0,0,0-.12.37l-.27.72a.31.31,0,0,0,0,.08l-.15.45s0,.09,0,.14l-.4,1.46,0,.13-.18.71c0,.05,0,.11,0,.17L86,343.7l-.36,3.1-.05.66a1.49,1.49,0,0,0,0,.21l.1,3.76.13,1.21.22,1.5.1.55.58,2.49,0,.1,1.08,3.1.06.16.83,1.83s0,.07.05.1l1.34,2.38.07.11.37.59a.76.76,0,0,0,.08.11l.56.82.08.1,1.51,1.94.08.09.22.25.08.09.88,1,.1.1,1.53,1.46.13.11.49.43a.79.79,0,0,0,.15.12l.78.63.07.06.82.59-1.71.24a4.15,4.15,0,0,0-2.77,1.63,4.21,4.21,0,0,0,3.95,6.7l40.28-5.68a4.21,4.21,0,0,0-1.18-8.34l-18.79,2.65-1.92.12-3.23-.22-2.14-.42-1.9-.59-2.36-1-.39-.21-.11-.06-1.52-.85-1.79-1.25-.55-.45-.09-.08-1.25-1.09-.22-.23a4,4,0,0,0-.54-.55l-1.32-1.53-1.63-2.41-1.06-2.09L95,355.42l-.46-1.85-.23-1.16L94,349.87l0-2.64.14-1.37s0-.06,0-.08l.05-.45.37-1.69s0-.06,0-.09l.09-.46.22-.66.05-.12.25-.81.48-1.15,0-.12.89-1.85.64-1.08a.36.36,0,0,0,.07-.1l.39-.57.1-.16.26-.35.07-.09.66-.86.82-1,.84-.82.13-.13.82-.77.09-.08.75-.63.22-.16a1.37,1.37,0,0,0,.21-.15l.31-.24L105,344.7a4.22,4.22,0,0,0,8.35-1.2l-2.23-15.88,2.42-.4.9-.07,2.25,15.92a4.21,4.21,0,0,0,3.11,3.49,4.26,4.26,0,0,0,5.26-4.71l-1.9-13.46.82.31.13.06,2.28,1.09,2.37,1.53a.66.66,0,0,0,.17.12l.53.41,1.7,1.56a.3.3,0,0,1,.08.08l.21.19,2,2.3.07.08.28.41.09.12,1.11,1.8a.64.64,0,0,0,.08.14l1.42,3.26s0,.06,0,.1l.94,3.94a1.85,1.85,0,0,0,3.31.79l3.71-4.93a2,2,0,0,0,.3-1.7Z"/><path class="cls-4" d="M468.47,300.3l-.35-1.13a.61.61,0,0,0-.05-.12l-.12-.33a.56.56,0,0,0,0-.12l-1.52-3.37-.06-.11-.35-.65-.08-.13-.86-1.4a.41.41,0,0,0-.07-.11l-.57-.84-.07-.08-.8-1.07-.06-.06-.29-.37-.06-.08-.24-.29-.06-.08-.14-.17-.07-.07-.22-.25-.12-.13-1.43-1.48-.16-.15-1.34-1.2-.09-.07-2.1-1.57-.1-.07-.44-.3-.11-.07-.37-.24-.13-.08-.73-.43-.07,0-1.05-.56-.07,0-.47-.25-.09-.05-1.28-.59-.08,0L448,280.7l-.08,0-1.36-.31-.5-3.51a4,4,0,0,0-7.24-1.81,4.12,4.12,0,0,0-.78,3l.26,1.83-1.09.12-2.09.34-.26-1.87h0a4,4,0,0,0-7.21-1.86l-.57.71a1.78,1.78,0,0,0-.38,1.37l.63,4.4-.2.09-.17.09-1.07.62-.14.08-1.38.89-.09.06-.4.3-3,2.44-.08.08-2,2-.12.15-1.6,2-.06.08-.54.78a.86.86,0,0,0-.1.16l-.29.46-.09.14-.69,1.22a.2.2,0,0,0,0,.08l-.3.52-.08.14-.51,1.09,0,.1-.34.75a1.22,1.22,0,0,0-.07.17l-.38.93a1.42,1.42,0,0,0-.11.35l-.26.7a.19.19,0,0,0,0,.07l-.14.43a.57.57,0,0,0,0,.14l-.38,1.39a.31.31,0,0,0,0,.13l-.17.68a.75.75,0,0,0,0,.16l-.22,1.16-.34,3-.05.63c0,.07,0,.13,0,.2l.09,3.61.13,1.15.21,1.44.1.53.55,2.38,0,.09,1,3a.94.94,0,0,0,.06.15l.79,1.75s0,.07.05.1l1.28,2.28.06.1.36.57a1,1,0,0,1,.08.11l.54.78.07.1,1.45,1.85.08.09.21.24.07.09.85.92.09.1,1.47,1.4.12.11.48.41a.69.69,0,0,0,.13.11l.75.6.07.06.78.56-1.63.23a4,4,0,1,0,1.12,8L461.86,335a4,4,0,0,0,2.66-1.57,4,4,0,0,0-3.78-6.41l-18,2.53-1.84.12-3.09-.21-2.05-.41-1.82-.56-2.26-.94-.37-.2-.11-.06-1.46-.81L428,325.3l-.52-.43-.09-.07-1.2-1.05-.2-.22a4.33,4.33,0,0,0-.52-.53l-1.26-1.46-1.56-2.31-1-2L420.8,315l-.45-1.77-.21-1.12-.24-2.43,0-2.53.14-1.31a.19.19,0,0,0,0-.08l.06-.42.35-1.63a.24.24,0,0,1,0-.08l.09-.44.21-.63s0-.08,0-.12l.25-.78.45-1.1a.37.37,0,0,0,.05-.11l.85-1.77.62-1,.06-.09.37-.55.11-.15.24-.34.07-.09.63-.82.79-1,.8-.79.13-.11.78-.74.09-.08.72-.6.2-.16.21-.14.29-.23,1.83,12.94a4,4,0,0,0,8-1.15l-2.14-15.21,2.32-.38.87-.08,2.15,15.26a4,4,0,0,0,7.24,1.83,4.08,4.08,0,0,0,.78-3l-1.82-12.89.78.29.12.06,2.19,1,2.27,1.47a1,1,0,0,0,.17.12l.5.39,1.63,1.49a.6.6,0,0,1,.08.08l.2.19,1.87,2.19.06.08.27.39.09.12,1.06,1.73s.05.08.07.13l1.37,3.12a.47.47,0,0,0,0,.09l.91,3.78a1.78,1.78,0,0,0,1.33,1.42,1.8,1.8,0,0,0,1.83-.66l3.56-4.73a2,2,0,0,0,.35-1.22A1.87,1.87,0,0,0,468.47,300.3Z"/></svg>