<svg id="Layer_1" data-name="Layer 1" xmlns="http://www.w3.org/2000/svg" viewBox="0 0 540 540"><defs><style>.cls-1{fill:#ff671d;}.cls-2{fill:#c2e76b;}.cls-3{fill:#31006f;}.cls-4{fill:#fff;}</style></defs><title>RANKO_ICONS</title><rect class="cls-1" x="149.32" y="114.5" width="34.47" height="137.86"/><path class="cls-2" d="M332,321.29a44.79,44.79,0,1,0,44.79,44.79A44.84,44.84,0,0,0,332,321.29Z"/><path class="cls-1" d="M70,381.36a24.06,24.06,0,0,1-24-24v-9.14a24,24,0,1,1,48.06,0v9.14A24.06,24.06,0,0,1,70,381.36Zm0-45.72a12.55,12.55,0,0,0-12.54,12.54v9.14a12.55,12.55,0,1,0,25.09,0v-9.14A12.56,12.56,0,0,0,70,335.64Z"/><path class="cls-1" d="M143.1,436.22a24.06,24.06,0,0,1-24-24V403a24,24,0,1,1,48.06,0v9.15A24.06,24.06,0,0,1,143.1,436.22Zm0-45.72A12.56,12.56,0,0,0,130.56,403v9.15a12.54,12.54,0,1,0,25.08,0V403A12.55,12.55,0,0,0,143.1,390.5Z"/><path class="cls-1" d="M69.07,437.62h0a5.74,5.74,0,0,1-1.68-7.94L136,324.41a5.75,5.75,0,0,1,8-1.67h0a5.75,5.75,0,0,1,1.67,7.95L77,436A5.74,5.74,0,0,1,69.07,437.62Z"/><path class="cls-3" d="M413,139.58a21.22,21.22,0,0,0-21.21-21.22s-100.48,0-110.43,0a5.66,5.66,0,0,0,0,11.32H389.73c6.48,0,11.84,5,12,11.18a11.39,11.39,0,0,1-11.39,11.6H345.69a5.66,5.66,0,0,0,0,11.32H390.3a11.39,11.39,0,1,1,0,22.77H345.69a5.66,5.66,0,0,0,0,11.32H390.3a11.39,11.39,0,1,1,0,22.77H345.69a5.66,5.66,0,0,0,0,11.32H390.3a11.39,11.39,0,0,1,11.39,11.6c-.12,6.16-5.48,11.17-12,11.17H251.53a48,48,0,0,1-9.48-.94l-52.19-10.43V129.67h7.94a32.67,32.67,0,0,0,23.11-9.57l16.56-16.56a37.75,37.75,0,0,1,26.69-11.06h21.89a18.55,18.55,0,0,1-.65-11.31H264.16a48.74,48.74,0,0,0-34.69,14.37L212.91,112.1a21.26,21.26,0,0,1-15.11,6.26h-7.94v-1.17a8.15,8.15,0,0,0-8.14-8.13H152.66A12.67,12.67,0,0,0,140,96.66H40.13a5.66,5.66,0,0,0,0,11.32h99.93a1.3,1.3,0,0,1,1.29,1.3V262.71A1.31,1.31,0,0,1,140,264H40.13a5.66,5.66,0,0,0-5.66,5.66h0a5.66,5.66,0,0,0,5.66,5.66H140a12.63,12.63,0,0,0,12.62-12.4h29.06a8.14,8.14,0,0,0,8.13-8.05l50,10a59.74,59.74,0,0,0,11.7,1.16H391.79A21.22,21.22,0,0,0,413,244.82v-3a21.13,21.13,0,0,0-6.82-15.56A21.13,21.13,0,0,0,413,210.73v-3a21.11,21.11,0,0,0-6.82-15.56A21.13,21.13,0,0,0,413,176.64v-3a21.11,21.11,0,0,0-6.82-15.56A21.14,21.14,0,0,0,413,142.55Zm-234.46,112H152.67V120.38h25.87Z"/><path class="cls-3" d="M407.83,252.63a15.45,15.45,0,0,1-8.72,7.44,184.78,184.78,0,0,1,38,61.74c14.57,39.24,14.52,80-.15,109.05-7.23,14.31-19.93,26.88-37.74,37.36a141.74,141.74,0,0,1-143.7,0c-17.82-10.48-30.51-23.05-37.74-37.36-14.67-29-14.73-69.81-.15-109A184.67,184.67,0,0,1,255,260.72a18.75,18.75,0,0,1-3,.25,15.13,15.13,0,0,1-9.76-3.19C195.49,312,182.89,387.32,207.5,436c8.23,16.31,22.42,30.47,42.17,42.08a153.19,153.19,0,0,0,155.34,0C424.76,466.51,439,452.35,447.18,436,472.58,385.76,458.34,307.19,407.83,252.63Z"/><path class="cls-3" d="M296,124.55h74.41a120.25,120.25,0,0,0,9.36-16.86,121.75,121.75,0,0,0,10.76-44.84,11.09,11.09,0,0,0-16.06-10.44,19,19,0,0,1-19-1.19l-10.3-6.87a21.46,21.46,0,0,0-23.84,0l-10.35,6.89a19,19,0,0,1-19,1.18,11.1,11.1,0,0,0-16.07,10.44,122.15,122.15,0,0,0,10.76,44.84A120.25,120.25,0,0,0,296,124.55ZM317.31,60.8l10.35-6.89a10,10,0,0,1,11.09,0l10.31,6.87A30.51,30.51,0,0,0,379,63a110.42,110.42,0,0,1-9.71,40,109,109,0,0,1-9.85,17.31H306.93A109.88,109.88,0,0,1,287.37,63,30.54,30.54,0,0,0,317.31,60.8Z"/><path class="cls-4" d="M361.71,359.64l-.21-1.16,0-.13-.08-.34a.59.59,0,0,0,0-.13l-1.08-3.53a.56.56,0,0,0,0-.12l-.27-.69a1.21,1.21,0,0,0-.05-.14l-.67-1.5-.06-.12-.46-.9-.06-.09-.66-1.16,0-.07-.24-.4-.06-.09-.19-.32-.06-.09-.12-.18a.35.35,0,0,0-.05-.08l-.19-.28A1.34,1.34,0,0,0,357,348l-1.22-1.65-.14-.18-1.17-1.36-.08-.08-1.88-1.83-.09-.08-.4-.35-.1-.09-.34-.28-.11-.09-.67-.53-.07,0-1-.69a.18.18,0,0,0-.07-.05l-.43-.31-.09-.06-1.19-.75-.07,0L344,337.57l-.08,0-1.31-.48,0-3.55a4.06,4.06,0,0,0-8.11.14l0,1.86-1.09,0-2.12.06,0-1.88h0a4,4,0,0,0-6.91-2.77l-.65.62a1.78,1.78,0,0,0-.56,1.32l.06,4.44-.21.07-.18.06-1.15.47-.14.07-1.48.7-.1.05-.44.25-3.26,2-.09.06-2.2,1.76-.14.13-1.85,1.83-.07.06-.64.71-.12.14-.34.42-.11.13-.84,1.12-.06.07-.36.48a1.13,1.13,0,0,0-.1.13l-.64,1-.06.08-.44.7L308,350l-.49.87a1.5,1.5,0,0,0-.16.34l-.34.65a.25.25,0,0,0,0,.07l-.19.41a.52.52,0,0,0-.06.13l-.56,1.33-.05.12-.25.65-.06.16-.36,1.12-.72,2.91-.14.61a1.42,1.42,0,0,0,0,.2l-.38,3.59,0,1.16,0,1.46,0,.53.25,2.43a.34.34,0,0,0,0,.1l.64,3.08c0,.06,0,.11,0,.16l.56,1.84,0,.1,1,2.43a.54.54,0,0,0,.05.11l.28.6a1.34,1.34,0,0,0,.06.12l.43.85.06.11,1.2,2a.61.61,0,0,0,.07.1l.17.26a.36.36,0,0,0,.07.1l.72,1,.08.11,1.27,1.57a.69.69,0,0,0,.11.13l.41.47.12.13.67.69.06.06.7.66-1.65,0a4,4,0,0,0,.09,8.06l39-.41a4,4,0,0,0-.08-8.07l-18.18.19-1.84-.12-3-.61-2-.66-1.74-.8-2.11-1.22-.34-.25-.11-.07-1.34-1-1.54-1.4-.47-.5-.07-.08-1.06-1.2-.18-.24a3.48,3.48,0,0,0-.44-.59L315.09,375l-1.25-2.5-.76-2.11-.55-2.3-.21-1.82-.07-1.13.07-2.44.37-2.51.31-1.27a.29.29,0,0,0,0-.09l.11-.41.56-1.56,0-.09.14-.42.3-.6a1.17,1.17,0,0,0,0-.11l.35-.74.59-1,.06-.11,1.07-1.64.75-.95.07-.08.45-.51.12-.13.28-.3a.6.6,0,0,0,.08-.08l.73-.74.91-.84.9-.68.14-.1.87-.63.1-.07.79-.5.22-.13a.94.94,0,0,0,.22-.12l.33-.18.14,13.06a4,4,0,0,0,8.08-.11l-.16-15.35,2.35-.09.87.05.17,15.4a4,4,0,0,0,6.94,2.75,4.11,4.11,0,0,0,1.16-2.87l-.14-13,.74.39a.41.41,0,0,0,.11.07l2,1.32,2.06,1.75.15.14.46.45,1.42,1.69.06.08.18.22,1.57,2.42a.22.22,0,0,0,.05.08l.22.42a.54.54,0,0,0,.07.13l.82,1.85a.61.61,0,0,0,.07.14l.94,3.28,0,.09.41,3.86a1.76,1.76,0,0,0,1.13,1.58,1.78,1.78,0,0,0,1.9-.41l4.14-4.23a2,2,0,0,0,.51-1.17A1.89,1.89,0,0,0,361.71,359.64Z"/></svg>