<svg id="Layer_1" data-name="Layer 1" xmlns="http://www.w3.org/2000/svg" viewBox="0 0 540 540"><defs><style>.cls-1{fill:#ff671d;}.cls-2{fill:#c2e76b;}.cls-3{fill:#31006f;}</style></defs><title>RANKO_ICONS</title><path class="cls-1" d="M375.64,403.23a27.58,27.58,0,0,1-27.55-27.55v-10.9a27.55,27.55,0,0,1,55.1,0v10.9A27.58,27.58,0,0,1,375.64,403.23Zm0-54.51a16.07,16.07,0,0,0-16.06,16.06v10.9a16.06,16.06,0,1,0,32.12,0v-10.9A16.08,16.08,0,0,0,375.64,348.72Z"/><path class="cls-1" d="M462.85,468.64a27.57,27.57,0,0,1-27.54-27.55v-10.9a27.55,27.55,0,1,1,55.09,0v10.9A27.58,27.58,0,0,1,462.85,468.64Zm0-54.51a16.09,16.09,0,0,0-16.06,16.06v10.9a16.06,16.06,0,1,0,32.12,0v-10.9A16.08,16.08,0,0,0,462.85,414.13Z"/><path class="cls-1" d="M374.58,471.43h0a5.74,5.74,0,0,1-1.67-7.95l83-127.36a5.73,5.73,0,0,1,8-1.67h0a5.73,5.73,0,0,1,1.67,7.95L382.53,469.75A5.75,5.75,0,0,1,374.58,471.43Z"/><rect class="cls-2" x="195.21" y="122.75" width="45.95" height="34.47" rx="9.33"/><path class="cls-3" d="M233.73,180.51H198a5.66,5.66,0,1,0,0,11.32h35.7a5.66,5.66,0,1,0,0-11.32Z"/><path class="cls-3" d="M299.56,180.51H263.87a5.66,5.66,0,1,0,0,11.32h35.69a5.66,5.66,0,1,0,0-11.32Z"/><path class="cls-3" d="M365.4,180.51H329.7a5.66,5.66,0,1,0,0,11.32h35.7a5.66,5.66,0,1,0,0-11.32Z"/><path class="cls-3" d="M486.08,67.64H179.57a22.85,22.85,0,0,0-22.84,22.84v14.78H143.82a51.55,51.55,0,0,0-33.24,12.18L5.44,206.4a5.67,5.67,0,0,0-.66,8h0a5.67,5.67,0,0,0,8,.66l105.14-89a40.15,40.15,0,0,1,25.92-9.5h12.91V259.05l-8.19,4.09a18.92,18.92,0,0,1-8.51,2h-7.32a5.67,5.67,0,0,0,0,11.33H140a30.49,30.49,0,0,0,13.58-3.2l89.87-44.94a79,79,0,0,1,35.12-8.29,13.24,13.24,0,0,1,8.09,23.71l-39.86,30.8-49.2,38h0l-46.24,35.73a97.8,97.8,0,0,1-59.48,20.3H10.44a5.67,5.67,0,0,0,0,11.33H91.91a109.17,109.17,0,0,0,66.41-22.67l45.1-34.85a29.1,29.1,0,0,0,45.9-1.48,29.07,29.07,0,0,0,47,0,29.15,29.15,0,0,0,24,12c16-.23,28.74-13.58,28.74-29.59V290.54H486.08a22.85,22.85,0,0,0,22.85-22.84V90.48A22.85,22.85,0,0,0,486.08,67.64ZM243.65,303.74a17.83,17.83,0,0,1-31.26,11.75l23.66-18.29,7.6-5.87Zm47,0a17.85,17.85,0,1,1-35.7,0v-13.2h35.7Zm47,0a17.85,17.85,0,1,1-35.7,0v-13.2h35.7Zm159.89-36a11.53,11.53,0,0,1-11.52,11.51H259.34l34.28-26.49a24.25,24.25,0,0,0,8.22-27.37,24.74,24.74,0,0,0-6-9.7A24.11,24.11,0,0,0,282.52,209a25.39,25.39,0,0,0-3.92-.3,90.27,90.27,0,0,0-40.19,9.49l-70.35,35.17V90.48A11.53,11.53,0,0,1,179.57,79H486.08A11.53,11.53,0,0,1,497.6,90.48Z"/><path class="cls-3" d="M238.23,117h-33A12.22,12.22,0,0,0,193,129.17v21.54a12.21,12.21,0,0,0,12.2,12.2h33a12.22,12.22,0,0,0,12.21-12.2V129.17A12.23,12.23,0,0,0,238.23,117Zm.72,33.75a.72.72,0,0,1-.72.72h-33a.73.73,0,0,1-.72-.72V129.17a.72.72,0,0,1,.72-.72h33a.72.72,0,0,1,.72.72Z"/></svg>