<svg id="Layer_1" data-name="Layer 1" xmlns="http://www.w3.org/2000/svg" viewBox="0 0 80.59 116.22"><defs><style>.cls-1{fill:#ff7340;}.cls-2{fill:#372d78;}</style></defs><title>Ranko_LOGO_RGB</title><path class="cls-1" d="M64.6,86.82v0L56,78.8,44.86,68.52h0l-1.27-1.18L56,55.82h0L71.77,41.19a21.93,21.93,0,0,0,1.74-8.61,25,25,0,0,0-.89-6.77L57.73,39.62,43.94,52.4l-4.25,3.94h0l-11.89,11,24,22.24,5.89,5.46,14.89,13.81a25.1,25.1,0,0,0,.89-6.78,22,22,0,0,0-1.74-8.61Z"/><path class="cls-2" d="M67.92,17.59a30.85,30.85,0,0,0-14-8.12A64.46,64.46,0,0,0,36.26,7.09H7.08l1.1,22.08V87.05l-1.1,22.08H23.56L22.07,79V26.86a49.11,49.11,0,0,1,.61-9.1,6.61,6.61,0,0,1,3.17-4.53q2.55-1.55,8.2-1.55A31.76,31.76,0,0,1,43.33,13a25.78,25.78,0,0,1,7.93,4,19,19,0,0,1,5.55,6.55,19.28,19.28,0,0,1,2.06,9c0,.41-.07.79-.09,1.19L70.72,22.7l.51-.48A18.76,18.76,0,0,0,67.92,17.59Z"/></svg>